<svg xmlns="http://www.w3.org/2000/svg" viewBox="0 0 64 64" width="64" height="64">
  <defs>
    <linearGradient id="flame" x1="0" y1="1" x2="0" y2="0">
      <stop offset="0%" stop-color="#FF6B35"/>
      <stop offset="50%" stop-color="#FF4500"/>
      <stop offset="100%" stop-color="#FFD700"/>
    </linearGradient>
    <linearGradient id="anvil" x1="0" y1="0" x2="0" y2="1">
      <stop offset="0%" stop-color="#4A5568"/>
      <stop offset="100%" stop-color="#2D3748"/>
    </linearGradient>
  </defs>
  
  <!-- Anvil body -->
  <path d="M16 38 L48 38 L52 42 L52 48 L12 48 L12 42 Z" fill="url(#anvil)" rx="2"/>
  
  <!-- Anvil top -->
  <rect x="20" y="34" width="24" height="6" rx="1" fill="#4A5568"/>
  
  <!-- Anvil horn -->
  <path d="M48 36 L56 40 L48 42 Z" fill="#4A5568"/>
  
  <!-- Flame -->
  <path d="M32 8 C28 16 22 20 24 28 C24 32 28 34 32 34 C36 34 40 32 40 28 C42 20 36 16 32 8 Z" fill="url(#flame)" opacity="0.95"/>
  
  <!-- Inner flame -->
  <path d="M32 14 C30 20 27 22 28 28 C28 31 30 33 32 33 C34 33 36 31 36 28 C37 22 34 20 32 14 Z" fill="#FFD700" opacity="0.7"/>
  
  <!-- Sparks -->
  <circle cx="22" cy="16" r="1.5" fill="#FFD700" opacity="0.8"/>
  <circle cx="42" cy="14" r="1" fill="#FF6B35" opacity="0.7"/>
  <circle cx="18" cy="24" r="1" fill="#FFD700" opacity="0.6"/>
  <circle cx="44" cy="22" r="1.5" fill="#FF4500" opacity="0.7"/>
  
  <!-- Base highlight -->
  <rect x="14" y="48" width="36" height="3" rx="1" fill="#1A202C"/>
</svg>
